PathFileType	4	(X/Y/Z)	E:\3-PhD\Data\MocapData\ElaboratedData\015\pre\dynamicElaborations\RunL1\RunL1.trc
DataRate	CameraRate	NumFrames	NumMarkers	Units	OrigDataRate	OrigDataStartFrame	OrigNumFrames
200	200	4	61	mm	200	2.560000e+02	124
Frame#	Time	FHD			LBHD			RBHD			C7			T10			CLAV			LSHO			LUUPA			LMUPA			LDUPA			LLEP			LMEP			LRAD			LUL			LRFIN			RSHO			RUPA1			RMUPA			RDUPA			RLEP			RMEP			RRAD			RUL			RUFIN			LASI			RASI			USACR			LSACR			RSACR			LTHI1			LTHI2			LTHI3			LTHI4			LLFC			LMFC			LTIB1			LTIB2			LTIB3			LTIB4			LLMAL			LMMAL			LHEE			LMT1			LMT5			LMT2			RTHI			RTHI2			RTHI3			RTHI4			RLFC			RMFC			RTIB1			RTIB2			RTIB3			RTIB4			RLMAL			RMMAL			RHEE			RMT1			RMT2			RMT5		
		X1	Y1	Z1	X2	Y2	Z2	X3	Y3	Z3	X4	Y4	Z4	X5	Y5	Z5	X6	Y6	Z6	X7	Y7	Z7	X8	Y8	Z8	X9	Y9	Z9	X10	Y10	Z10	X11	Y11	Z11	X12	Y12	Z12	X13	Y13	Z13	X14	Y14	Z14	X15	Y15	Z15	X16	Y16	Z16	X17	Y17	Z17	X18	Y18	Z18	X19	Y19	Z19	X20	Y20	Z20	X21	Y21	Z21	X22	Y22	Z22	X23	Y23	Z23	X24	Y24	Z24	X25	Y25	Z25	X26	Y26	Z26	X27	Y27	Z27	X28	Y28	Z28	X29	Y29	Z29	X30	Y30	Z30	X31	Y31	Z31	X32	Y32	Z32	X33	Y33	Z33	X34	Y34	Z34	X35	Y35	Z35	X36	Y36	Z36	X37	Y37	Z37	X38	Y38	Z38	X39	Y39	Z39	X40	Y40	Z40	X41	Y41	Z41	X42	Y42	Z42	X43	Y43	Z43	X44	Y44	Z44	X45	Y45	Z45	X46	Y46	Z46	X47	Y47	Z47	X48	Y48	Z48	X49	Y49	Z49	X50	Y50	Z50	X51	Y51	Z51	X52	Y52	Z52	X53	Y53	Z53	X54	Y54	Z54	X55	Y55	Z55	X56	Y56	Z56	X57	Y57	Z57	X58	Y58	Z58	X59	Y59	Z59	X60	Y60	Z60	X61	Y61	Z61	
318	1.585000	-749.726121	1527.992553	234.797454	-869.061946	1596.590671	200.422381	-897.749133	1603.917552	323.922169	-1046.982561	1492.747052	227.218892	-1150.760634	1170.640062	204.113357	-923.067904	1382.757825	258.362140	-946.206334	1480.720913	78.241430	-932.525139	1312.152291	-18.118286	-912.049381	1274.164978	2.917437	-930.418061	1251.117267	-48.038252	-952.540335	1175.240310	-81.686849	-1010.069515	1144.631597	3.981268	-765.409552	1180.326409	96.732115	-810.559361	1232.896618	122.186206	-741.491995	1279.561139	137.306555	-1035.016250	1480.936356	406.881245	-1158.030529	1418.847764	512.682441	-1148.226177	1377.719762	536.321182	-1205.286943	1388.097428	555.356515	-1261.469392	1303.675395	603.118129	-1301.534300	1290.066578	531.326817	-1082.944080	1107.782171	545.228859	-1120.900502	1065.597278	595.316729	-1018.004521	1047.750106	552.204975	-1016.932360	967.710783	109.733543	-1032.366164	1002.175627	351.774813	-1188.190411	1072.817382	222.965789	-1195.106969	1038.269261	198.736513	-1200.713711	1047.150507	254.699408	-1231.980059	733.589824	50.619726	-1238.354661	650.069116	54.574595	-1196.724788	627.995843	60.106100	-1284.732341	615.186770	73.528843	-1341.779941	539.146043	82.643537	-1342.585112	529.708598	210.515856	-1410.811008	377.222140	94.702496	-1482.585186	392.483763	46.888109	-1457.868391	362.137166	63.620599	-1512.317621	297.878437	82.221737	-1635.634914	249.249472	47.315450	-1635.911601	245.208344	131.602426	-1711.535774	296.430779	78.061071	-1647.374625	108.495764	146.114266	-1677.169934	106.651337	44.484045	-1640.322614	98.771417	99.351810	-987.375473	854.738939	429.338520	-926.352967	836.633976	417.720663	-905.960027	858.673714	400.884743	-897.005776	757.044691	415.080349	-828.220301	587.127323	372.677851	-815.834655	598.158837	254.025867	-795.474548	376.854146	326.776176	-872.454353	304.491578	361.277709	-828.066255	298.910458	346.997055	-823.778469	252.550456	314.222377	-877.738517	180.009276	334.228743	-866.111790	201.793145	255.696027	-957.688280	131.852957	276.292968	-732.072680	133.599131	272.441011	-740.841318	131.391776	314.908385	-783.454302	95.480519	361.734527	
319	1.590000	-725.839039	1529.811982	237.809380	-845.669360	1597.559757	203.427388	-874.918888	1604.052023	326.815481	-1022.751351	1492.826523	228.459402	-1126.190302	1171.232909	202.871528	-898.525085	1383.154130	260.167891	-920.761305	1481.773676	80.491328	-907.345287	1314.051126	-17.059390	-887.170148	1275.620145	3.406268	-905.636814	1253.422879	-47.820339	-928.222320	1177.704573	-81.947501	-987.641695	1146.796498	3.065823	-743.641804	1180.870719	99.906164	-788.809274	1233.922353	123.964912	-719.868103	1280.426424	139.636472	-1011.472496	1479.986745	408.496079	-1134.405343	1417.195677	513.465332	-1125.084367	1375.684226	536.514261	-1182.125380	1386.180063	555.472010	-1238.750385	1301.029664	601.972212	-1278.033597	1287.708610	529.905318	-1057.216477	1107.663128	544.712362	-1094.983575	1064.720391	594.263301	-991.725009	1047.993181	551.345181	-991.735450	967.317544	109.628721	-1007.183289	1002.727811	351.130099	-1162.926766	1074.279476	221.345455	-1169.660125	1039.648626	197.104993	-1175.420388	1048.490375	253.054887	-1207.034275	733.963147	51.745168	-1213.324245	650.437633	56.563393	-1172.097231	627.961083	63.628751	-1260.084488	615.798130	75.325897	-1317.173558	539.895575	84.605751	-1323.000644	535.135685	212.560150	-1391.429505	380.410672	98.875123	-1460.233348	396.040962	47.653631	-1437.513315	365.499700	66.164620	-1495.013635	304.274878	84.066340	-1618.778698	259.683115	45.458206	-1622.289429	256.275914	129.662675	-1694.867549	308.719374	72.964697	-1636.517759	119.369514	144.457857	-1662.212878	118.055198	41.655219	-1627.613457	108.551904	97.887876	-962.031179	854.495109	428.135419	-901.257805	835.372072	416.463606	-880.578573	857.018027	399.562123	-873.033122	755.466824	414.098509	-804.719835	584.039290	372.471438	-792.079042	594.894635	253.656334	-762.027271	375.390868	327.062977	-835.600615	299.058790	360.437582	-790.737172	295.798722	346.880125	-783.663089	249.830423	314.151364	-833.640289	174.270673	333.335486	-822.551300	196.824502	254.962902	-910.180816	121.509991	274.820650	-684.999421	136.622571	272.996757	-693.939505	133.769534	315.232872	-734.791194	95.707554	361.939077	
320	1.595000	-701.903797	1531.408544	240.701965	-822.218335	1598.327495	206.351464	-851.999891	1603.967930	329.643357	-998.476131	1492.771581	229.735877	-1101.690558	1171.782722	201.929095	-874.002494	1383.356938	261.792468	-895.444850	1482.558110	82.568139	-882.588177	1315.637586	-16.230507	-862.529013	1276.804184	3.586398	-881.271106	1255.402108	-47.849459	-904.328622	1179.748729	-82.157887	-965.308487	1148.693319	2.299873	-722.009213	1180.495779	102.765322	-767.055361	1234.049786	125.623873	-698.087050	1280.173935	142.005806	-987.760376	1478.739338	410.176719	-1110.572575	1414.962265	514.409882	-1101.693693	1373.060616	536.823374	-1158.724036	1383.630951	555.742111	-1215.728266	1297.736728	600.935704	-1254.232512	1284.640431	528.602457	-1031.127725	1107.073847	544.162990	-1068.644938	1063.345182	593.166997	-965.037725	1047.851372	550.471579	-966.648120	966.813796	109.556450	-981.992259	1002.951656	350.665545	-1137.797639	1075.589194	219.903240	-1144.300592	1040.894552	195.598736	-1150.199165	1049.611072	251.571225	-1181.330824	733.387717	52.724273	-1187.336015	649.834394	58.398219	-1146.474852	627.204007	67.095674	-1234.480813	615.338432	76.760386	-1291.479098	539.505845	86.299199	-1302.007783	539.400115	214.199593	-1371.636781	383.088863	103.048148	-1437.145881	398.787789	48.122358	-1416.696085	368.254791	68.754427	-1477.410851	310.539198	86.061964	-1601.731510	270.412833	43.973511	-1607.958459	267.614898	128.061796	-1677.897887	321.114135	68.877304	-1624.684822	130.685762	142.852447	-1646.752409	129.887192	39.051604	-1614.257627	118.997035	96.440700	-936.841845	853.776683	427.115623	-876.351429	833.648577	415.268354	-855.494108	854.757374	398.054446	-849.214906	753.433449	413.495247	-781.745371	580.369424	372.349601	-768.776768	590.927666	253.311474	-729.618505	373.769270	327.560139	-799.924804	293.846852	359.559452	-754.663138	292.797133	346.868668	-744.835616	247.329523	314.247499	-790.791808	169.044256	332.478437	-780.267768	192.433226	254.282486	-863.835971	112.104345	273.408971	-639.779404	140.047991	273.480698	-648.814262	136.469805	315.484767	-687.837881	96.331259	362.025439	
321	1.600000	-677.934681	1532.765413	243.461255	-798.722978	1598.885529	209.180839	-828.990518	1603.663174	332.392894	-974.150107	1492.589347	231.047004	-1077.260499	1172.289237	201.293510	-849.509932	1383.375556	263.248902	-870.266360	1483.072595	84.457013	-858.257211	1316.905230	-15.634779	-838.139392	1277.723469	3.489772	-857.321368	1257.038202	-48.101384	-880.870764	1181.355348	-82.301268	-943.094487	1150.334672	1.696857	-700.498456	1179.208490	105.271135	-745.280163	1233.262983	127.206793	-676.134615	1278.784818	144.432895	-963.892647	1477.214054	411.904974	-1086.545306	1412.144081	515.511091	-1078.047750	1369.854667	537.247938	-1135.077229	1380.437415	556.168108	-1192.383694	1293.812808	600.022645	-1230.119390	1280.888055	527.422486	-1004.684141	1106.014904	543.580102	-1041.904364	1061.470717	592.016315	-937.954385	1047.333830	549.602476	-941.628157	966.212486	109.553869	-956.822581	1002.847631	350.400648	-1112.803615	1076.712147	218.690680	-1119.021929	1041.980888	194.264655	-1125.055709	1050.477389	250.293741	-1154.873995	731.875674	53.538905	-1160.486302	648.282717	60.087037	-1119.944895	625.747209	70.431713	-1208.030959	613.869347	77.838314	-1264.911190	538.131169	87.706873	-1279.556310	542.393873	215.440896	-1351.420263	385.328820	106.976141	-1413.517912	400.879447	48.302593	-1395.488064	370.554293	71.226476	-1459.432524	316.682398	88.035983	-1584.379211	281.379471	42.835621	-1592.702413	279.079881	126.815353	-1660.428337	333.648516	65.914221	-1611.805149	142.276292	141.307790	-1630.952134	142.093812	36.723267	-1600.264489	129.964618	94.982968	-911.845046	852.580232	426.365470	-851.681773	831.495765	414.187883	-830.775691	851.939299	396.420923	-825.565340	750.980608	413.296505	-759.276488	576.217106	372.270381	-745.937421	586.349667	252.970311	-698.298594	371.988229	328.237755	-765.522500	288.863682	358.667383	-719.939460	289.891329	346.951541	-707.427728	245.001978	314.488401	-749.407211	164.285560	331.664686	-739.473871	188.576985	253.665495	-818.960986	103.631200	272.055831	-596.598269	143.700060	273.894656	-605.651917	139.331927	315.671711	-642.805951	97.172578	361.981064	
